<svg xmlns="http://www.w3.org/2000/svg" xmlns:xlink="http://www.w3.org/1999/xlink" width="500" zoomAndPan="magnify" viewBox="0 0 375 374.999991" height="500" preserveAspectRatio="xMidYMid meet" version="1.0"><defs><clipPath id="f7337544ba"><path d="M 89 84.476562 L 286 84.476562 L 286 290.726562 L 89 290.726562 Z M 89 84.476562 " clip-rule="nonzero"/></clipPath><clipPath id="062f7302c2"><path d="M 58.113281 170 L 81 170 L 81 243 L 58.113281 243 Z M 58.113281 170 " clip-rule="nonzero"/></clipPath><clipPath id="4329426341"><path d="M 294 170 L 316.863281 170 L 316.863281 243 L 294 243 Z M 294 170 " clip-rule="nonzero"/></clipPath></defs><g clip-path="url(#f7337544ba)"><path fill="#000000" d="M 242.132812 290.710938 L 132.691406 290.710938 C 108.589844 290.710938 89.039062 271.136719 89.039062 247.160156 L 89.039062 176.144531 C 89.039062 152.019531 108.589844 132.441406 132.691406 132.441406 L 182.714844 132.441406 L 182.867188 115.75 C 176.347656 113.777344 171.496094 107.707031 171.496094 100.425781 C 171.496094 91.625 178.773438 84.492188 187.566406 84.492188 C 196.355469 84.492188 203.632812 91.625 203.632812 100.425781 C 203.632812 107.707031 198.628906 113.929688 191.960938 115.902344 L 191.808594 132.441406 L 242.132812 132.441406 C 266.085938 132.441406 285.640625 152.019531 285.640625 176.144531 L 285.640625 247.3125 C 285.640625 271.289062 266.085938 290.710938 242.132812 290.710938 Z M 146.335938 221.820312 C 133.449219 221.820312 123.292969 211.652344 123.292969 198.90625 C 123.292969 186.007812 133.449219 175.839844 146.335938 175.839844 C 159.21875 175.839844 169.222656 186.007812 169.222656 198.90625 C 169.222656 211.652344 159.21875 221.820312 146.335938 221.820312 Z M 146.335938 184.945312 C 138.453125 184.945312 132.390625 191.015625 132.390625 198.90625 C 132.390625 206.644531 138.453125 212.714844 146.335938 212.714844 C 154.066406 212.714844 160.28125 206.644531 160.28125 198.90625 C 160.28125 191.015625 154.066406 184.945312 146.335938 184.945312 Z M 228.644531 220.910156 C 215.757812 220.910156 205.453125 210.589844 205.453125 197.84375 C 205.453125 185.097656 215.757812 174.78125 228.644531 174.78125 C 241.226562 174.78125 251.53125 185.097656 251.53125 197.84375 C 251.53125 210.589844 241.226562 220.910156 228.644531 220.910156 Z M 228.644531 183.882812 C 220.761719 183.882812 214.546875 190.257812 214.546875 197.84375 C 214.546875 205.582031 220.761719 211.957031 228.644531 211.957031 C 236.375 211.957031 242.4375 205.582031 242.4375 197.84375 C 242.4375 189.953125 236.222656 183.882812 228.644531 183.882812 Z M 185.746094 248.527344 C 177.105469 248.527344 169.527344 244.429688 165.28125 240.789062 C 163.3125 239.117188 163.160156 236.082031 164.828125 234.414062 C 166.496094 232.59375 169.222656 232.289062 171.195312 234.109375 C 172.558594 235.324219 185.746094 245.796875 198.328125 234.261719 C 200.148438 232.59375 202.875 232.59375 204.84375 234.414062 C 206.511719 236.386719 206.511719 239.117188 204.695312 240.941406 C 198.328125 246.402344 191.808594 248.527344 185.746094 248.527344 Z M 185.746094 248.527344 " fill-opacity="1" fill-rule="evenodd"/></g><g clip-path="url(#062f7302c2)"><path fill="#000000" d="M 79.941406 242.003906 L 78.125 242.003906 C 67.210938 242.003906 58.113281 233.050781 58.113281 221.972656 L 58.113281 191.015625 C 58.113281 179.9375 67.210938 170.835938 78.125 170.835938 L 80.246094 170.835938 C 80.09375 172.503906 79.941406 174.324219 79.941406 176.144531 Z M 79.941406 242.003906 " fill-opacity="1" fill-rule="evenodd"/></g><g clip-path="url(#4329426341)"><path fill="#000000" d="M 296.550781 242.003906 L 294.734375 242.003906 L 294.734375 176.144531 C 294.734375 174.171875 294.582031 172.351562 294.429688 170.683594 L 296.550781 170.683594 C 307.769531 170.683594 316.863281 179.636719 316.863281 190.863281 L 316.863281 221.972656 C 316.863281 233.199219 307.769531 242.003906 296.550781 242.003906 Z M 296.550781 242.003906 " fill-opacity="1" fill-rule="evenodd"/></g></svg>